# xmcd
# Track frame offsets:
# 183
# 14883
# 35245
# 45935
#
# Disc length: 764 seconds
# Revision: 0
# Processed by: cddbd v1.5.1PL0 Copyright (c) Steve Scherf et al.
# Submitted via: VisiTrax 2.9.9.209 - For more info visit www.synapsa.com
#
DISCID=3002fa04
DTITLE=The Animals - We've gotta get out af this place
DYEAR=1900
DGENRE=
TTITLE0=We've gotta get out of this place
TTITLE1=The House af the rising sun
TTITLE2=Baby let me take you home
TTITLE3=Blue feeling
EXTD=
EXTT0=
EXTT1=
EXTT2=
EXTT3=
PLAYORDER=
